<mxfile host="app.diagrams.net" modified="2021-03-10T11:15:48.674Z" agent="5.0 (Windows NT 10.0; Win64; x64) AppleWebKit/537.36 (KHTML, like Gecko) Chrome/88.0.4324.190 Safari/537.36" etag="xbcg5aLq_h0r6w3LBOnS" version="14.4.4" type="github">
  <diagram id="GiaZB_FBiEpgFsnGQCcn" name="第 1 页">
    <mxGraphModel dx="981" dy="514" grid="1" gridSize="7" guides="1" tooltips="1" connect="1" arrows="1" fold="1" page="1" pageScale="1" pageWidth="827" pageHeight="1169" math="0" shadow="0">
      <root>
        <mxCell id="0" />
        <mxCell id="1" parent="0" />
        <mxCell id="n_jWYJOp6Hy3PBvJpr7p-1" value="" style="rounded=0;whiteSpace=wrap;html=1;" vertex="1" parent="1">
          <mxGeometry x="250" y="130" width="310" height="20" as="geometry" />
        </mxCell>
        <mxCell id="n_jWYJOp6Hy3PBvJpr7p-167" value="" style="rounded=0;whiteSpace=wrap;html=1;gradientColor=#7ea6e0;fillColor=#dae8fc;strokeColor=#6c8ebf;gradientDirection=north;" vertex="1" parent="1">
          <mxGeometry x="620" y="190" width="20" height="130" as="geometry" />
        </mxCell>
        <mxCell id="n_jWYJOp6Hy3PBvJpr7p-168" value="P = 1" style="text;html=1;align=center;verticalAlign=middle;resizable=0;points=[];autosize=1;" vertex="1" parent="1">
          <mxGeometry x="640" y="190" width="40" height="20" as="geometry" />
        </mxCell>
        <mxCell id="n_jWYJOp6Hy3PBvJpr7p-169" value="P = 0" style="text;html=1;align=center;verticalAlign=middle;resizable=0;points=[];autosize=1;" vertex="1" parent="1">
          <mxGeometry x="640" y="299.52" width="40" height="20" as="geometry" />
        </mxCell>
        <mxCell id="n_jWYJOp6Hy3PBvJpr7p-137" value="S" style="text;html=1;align=center;verticalAlign=middle;resizable=0;points=[];autosize=1;container=0;" vertex="1" parent="1">
          <mxGeometry x="180" y="194.28571428571428" width="20" height="20" as="geometry" />
        </mxCell>
        <mxCell id="n_jWYJOp6Hy3PBvJpr7p-138" value="T" style="text;html=1;align=center;verticalAlign=middle;resizable=0;points=[];autosize=1;container=0;" vertex="1" parent="1">
          <mxGeometry x="180" y="218.57142857142856" width="20" height="20" as="geometry" />
        </mxCell>
        <mxCell id="n_jWYJOp6Hy3PBvJpr7p-139" value="A" style="text;html=1;align=center;verticalAlign=middle;resizable=0;points=[];autosize=1;container=0;" vertex="1" parent="1">
          <mxGeometry x="180" y="242.85714285714286" width="20" height="20" as="geometry" />
        </mxCell>
        <mxCell id="n_jWYJOp6Hy3PBvJpr7p-140" value="_" style="text;html=1;align=center;verticalAlign=middle;resizable=0;points=[];autosize=1;container=0;" vertex="1" parent="1">
          <mxGeometry x="180" y="267.1428571428571" width="20" height="20" as="geometry" />
        </mxCell>
        <mxCell id="n_jWYJOp6Hy3PBvJpr7p-141" value="E" style="text;html=1;align=center;verticalAlign=middle;resizable=0;points=[];autosize=1;container=0;" vertex="1" parent="1">
          <mxGeometry x="180" y="299.5238095238095" width="20" height="20" as="geometry" />
        </mxCell>
        <mxCell id="n_jWYJOp6Hy3PBvJpr7p-157" value="X&lt;sub style=&quot;font-size: 10.5px;&quot;&gt;0&lt;/sub&gt;" style="text;html=1;align=center;verticalAlign=middle;resizable=0;points=[];autosize=1;container=0;fontSize=10.5;" vertex="1" parent="1">
          <mxGeometry x="203.68421052631578" y="166" width="30" height="20" as="geometry" />
        </mxCell>
        <mxCell id="n_jWYJOp6Hy3PBvJpr7p-158" value="X&lt;span style=&quot;font-size: 10.5px;&quot;&gt;&lt;sub style=&quot;font-size: 10.5px;&quot;&gt;1&lt;/sub&gt;&lt;/span&gt;" style="text;html=1;align=center;verticalAlign=middle;resizable=0;points=[];autosize=1;container=0;fontSize=10.5;" vertex="1" parent="1">
          <mxGeometry x="230.5263157894737" y="166" width="30" height="20" as="geometry" />
        </mxCell>
        <mxCell id="n_jWYJOp6Hy3PBvJpr7p-159" value="X&lt;span style=&quot;font-size: 10.5px;&quot;&gt;&lt;sub style=&quot;font-size: 10.5px;&quot;&gt;2&lt;/sub&gt;&lt;/span&gt;" style="text;html=1;align=center;verticalAlign=middle;resizable=0;points=[];autosize=1;container=0;fontSize=10.5;" vertex="1" parent="1">
          <mxGeometry x="254.21052631578948" y="166" width="30" height="20" as="geometry" />
        </mxCell>
        <mxCell id="n_jWYJOp6Hy3PBvJpr7p-160" value="X&lt;span style=&quot;font-size: 10.5px;&quot;&gt;&lt;sub style=&quot;font-size: 10.5px;&quot;&gt;3&lt;/sub&gt;&lt;/span&gt;" style="text;html=1;align=center;verticalAlign=middle;resizable=0;points=[];autosize=1;container=0;fontSize=10.5;" vertex="1" parent="1">
          <mxGeometry x="280.2631578947369" y="166" width="30" height="20" as="geometry" />
        </mxCell>
        <mxCell id="n_jWYJOp6Hy3PBvJpr7p-161" value="X&lt;span style=&quot;font-size: 10.5px;&quot;&gt;&lt;sub style=&quot;font-size: 10.5px;&quot;&gt;4&lt;/sub&gt;&lt;/span&gt;" style="text;html=1;align=center;verticalAlign=middle;resizable=0;points=[];autosize=1;container=0;fontSize=10.5;" vertex="1" parent="1">
          <mxGeometry x="306.3157894736842" y="166" width="30" height="20" as="geometry" />
        </mxCell>
        <mxCell id="n_jWYJOp6Hy3PBvJpr7p-162" value="X&lt;span style=&quot;font-size: 10.5px;&quot;&gt;&lt;sub style=&quot;font-size: 10.5px;&quot;&gt;5&lt;/sub&gt;&lt;/span&gt;" style="text;html=1;align=center;verticalAlign=middle;resizable=0;points=[];autosize=1;container=0;fontSize=10.5;" vertex="1" parent="1">
          <mxGeometry x="332.36842105263156" y="166" width="30" height="20" as="geometry" />
        </mxCell>
        <mxCell id="n_jWYJOp6Hy3PBvJpr7p-163" value="X&lt;span style=&quot;font-size: 10.5px;&quot;&gt;&lt;sub style=&quot;font-size: 10.5px;&quot;&gt;6&lt;/sub&gt;&lt;/span&gt;" style="text;html=1;align=center;verticalAlign=middle;resizable=0;points=[];autosize=1;container=0;fontSize=10.5;" vertex="1" parent="1">
          <mxGeometry x="357.63157894736844" y="166" width="30" height="20" as="geometry" />
        </mxCell>
        <mxCell id="n_jWYJOp6Hy3PBvJpr7p-164" value="X&lt;span style=&quot;font-size: 10.5px;&quot;&gt;&lt;sub style=&quot;font-size: 10.5px;&quot;&gt;7&lt;/sub&gt;&lt;/span&gt;" style="text;html=1;align=center;verticalAlign=middle;resizable=0;points=[];autosize=1;container=0;fontSize=10.5;" vertex="1" parent="1">
          <mxGeometry x="385.2631578947369" y="166" width="30" height="20" as="geometry" />
        </mxCell>
        <mxCell id="n_jWYJOp6Hy3PBvJpr7p-165" value="X&lt;span style=&quot;font-size: 10.5px;&quot;&gt;&lt;sub style=&quot;font-size: 10.5px;&quot;&gt;8&lt;/sub&gt;&lt;/span&gt;" style="text;html=1;align=center;verticalAlign=middle;resizable=0;points=[];autosize=1;container=0;fontSize=10.5;" vertex="1" parent="1">
          <mxGeometry x="409.7368421052631" y="166" width="30" height="20" as="geometry" />
        </mxCell>
        <mxCell id="n_jWYJOp6Hy3PBvJpr7p-166" value="X&lt;span style=&quot;font-size: 10.5px;&quot;&gt;&lt;sub style=&quot;font-size: 10.5px;&quot;&gt;9&lt;/sub&gt;&lt;/span&gt;" style="text;html=1;align=center;verticalAlign=middle;resizable=0;points=[];autosize=1;container=0;fontSize=10.5;" vertex="1" parent="1">
          <mxGeometry x="436.57894736842104" y="166" width="30" height="20" as="geometry" />
        </mxCell>
        <mxCell id="n_jWYJOp6Hy3PBvJpr7p-196" value="X&lt;span style=&quot;font-size: 10.5px;&quot;&gt;&lt;sub style=&quot;font-size: 10.5px;&quot;&gt;10&lt;/sub&gt;&lt;/span&gt;" style="text;html=1;align=center;verticalAlign=middle;resizable=0;points=[];autosize=1;container=0;fontSize=10.5;" vertex="1" parent="1">
          <mxGeometry x="455.99894736842106" y="166" width="40" height="20" as="geometry" />
        </mxCell>
        <mxCell id="n_jWYJOp6Hy3PBvJpr7p-197" value="X&lt;span style=&quot;font-size: 10.5px;&quot;&gt;&lt;sub style=&quot;font-size: 10.5px;&quot;&gt;11&lt;/sub&gt;&lt;/span&gt;" style="text;html=1;align=center;verticalAlign=middle;resizable=0;points=[];autosize=1;container=0;fontSize=10.5;" vertex="1" parent="1">
          <mxGeometry x="481.99894736842106" y="166" width="40" height="20" as="geometry" />
        </mxCell>
        <mxCell id="n_jWYJOp6Hy3PBvJpr7p-198" value="X&lt;span style=&quot;font-size: 10.5px;&quot;&gt;&lt;sub style=&quot;font-size: 10.5px;&quot;&gt;12&lt;/sub&gt;&lt;/span&gt;" style="text;html=1;align=center;verticalAlign=middle;resizable=0;points=[];autosize=1;container=0;fontSize=10.5;" vertex="1" parent="1">
          <mxGeometry x="507.9989473684211" y="166" width="40" height="20" as="geometry" />
        </mxCell>
        <mxCell id="n_jWYJOp6Hy3PBvJpr7p-199" value="X&lt;span style=&quot;font-size: 10.5px;&quot;&gt;&lt;sub style=&quot;font-size: 10.5px;&quot;&gt;13&lt;/sub&gt;&lt;/span&gt;" style="text;html=1;align=center;verticalAlign=middle;resizable=0;points=[];autosize=1;container=0;fontSize=10.5;" vertex="1" parent="1">
          <mxGeometry x="534.9989473684211" y="166" width="40" height="20" as="geometry" />
        </mxCell>
        <mxCell id="n_jWYJOp6Hy3PBvJpr7p-200" value="X&lt;span style=&quot;font-size: 10.5px;&quot;&gt;&lt;sub style=&quot;font-size: 10.5px;&quot;&gt;14&lt;/sub&gt;&lt;/span&gt;" style="text;html=1;align=center;verticalAlign=middle;resizable=0;points=[];autosize=1;container=0;fontSize=10.5;" vertex="1" parent="1">
          <mxGeometry x="559.838947368421" y="166" width="40" height="20" as="geometry" />
        </mxCell>
        <mxCell id="n_jWYJOp6Hy3PBvJpr7p-201" value="" style="endArrow=none;html=1;fontSize=10.5;exitX=-0.002;exitY=0.753;exitDx=0;exitDy=0;exitPerimeter=0;" edge="1" parent="1">
          <mxGeometry width="50" height="50" relative="1" as="geometry">
            <mxPoint x="203.6242105263159" y="185.05999999999995" as="sourcePoint" />
            <mxPoint x="250" y="150" as="targetPoint" />
          </mxGeometry>
        </mxCell>
        <mxCell id="n_jWYJOp6Hy3PBvJpr7p-202" value="" style="endArrow=none;html=1;fontSize=10.5;entryX=1;entryY=1;entryDx=0;entryDy=0;exitX=0.999;exitY=-0.026;exitDx=0;exitDy=0;exitPerimeter=0;" edge="1" parent="1" source="n_jWYJOp6Hy3PBvJpr7p-145" target="n_jWYJOp6Hy3PBvJpr7p-1">
          <mxGeometry width="50" height="50" relative="1" as="geometry">
            <mxPoint x="591.4539473684213" y="182.32547619047614" as="sourcePoint" />
            <mxPoint x="559.9999999999995" y="146" as="targetPoint" />
          </mxGeometry>
        </mxCell>
        <mxCell id="n_jWYJOp6Hy3PBvJpr7p-4" value="" style="shape=table;html=1;whiteSpace=wrap;startSize=0;container=1;collapsible=0;childLayout=tableLayout;strokeColor=none;" vertex="1" parent="1">
          <mxGeometry x="203.68421052631578" y="186.1904761904762" width="388.1578947368421" height="132.76190476190473" as="geometry" />
        </mxCell>
        <mxCell id="n_jWYJOp6Hy3PBvJpr7p-145" style="shape=partialRectangle;html=1;whiteSpace=wrap;collapsible=0;dropTarget=0;pointerEvents=0;fillColor=none;top=0;left=0;bottom=0;right=0;points=[[0,0.5],[1,0.5]];portConstraint=eastwest;strokeColor=none;" vertex="1" parent="n_jWYJOp6Hy3PBvJpr7p-4">
          <mxGeometry width="388.1578947368421" height="27" as="geometry" />
        </mxCell>
        <mxCell id="n_jWYJOp6Hy3PBvJpr7p-146" style="shape=partialRectangle;html=1;whiteSpace=wrap;connectable=0;overflow=hidden;top=0;left=0;bottom=0;right=0;fillColor=#83ADE8;container=0;strokeColor=none;" vertex="1" parent="n_jWYJOp6Hy3PBvJpr7p-145">
          <mxGeometry width="27" height="27" as="geometry" />
        </mxCell>
        <mxCell id="n_jWYJOp6Hy3PBvJpr7p-147" style="shape=partialRectangle;html=1;whiteSpace=wrap;connectable=0;overflow=hidden;fillColor=#83ADE8;top=0;left=0;bottom=0;right=0;container=0;strokeColor=none;" vertex="1" parent="n_jWYJOp6Hy3PBvJpr7p-145">
          <mxGeometry x="27" width="24" height="27" as="geometry" />
        </mxCell>
        <mxCell id="n_jWYJOp6Hy3PBvJpr7p-148" style="shape=partialRectangle;html=1;whiteSpace=wrap;connectable=0;overflow=hidden;fillColor=none;top=0;left=0;bottom=0;right=0;container=0;strokeColor=none;" vertex="1" parent="n_jWYJOp6Hy3PBvJpr7p-145">
          <mxGeometry x="51" width="26" height="27" as="geometry" />
        </mxCell>
        <mxCell id="n_jWYJOp6Hy3PBvJpr7p-149" style="shape=partialRectangle;html=1;whiteSpace=wrap;connectable=0;overflow=hidden;fillColor=none;top=0;left=0;bottom=0;right=0;container=0;strokeColor=none;" vertex="1" parent="n_jWYJOp6Hy3PBvJpr7p-145">
          <mxGeometry x="77" width="27" height="27" as="geometry" />
        </mxCell>
        <mxCell id="n_jWYJOp6Hy3PBvJpr7p-150" style="shape=partialRectangle;html=1;whiteSpace=wrap;connectable=0;overflow=hidden;fillColor=none;top=0;left=0;bottom=0;right=0;container=0;strokeColor=none;" vertex="1" parent="n_jWYJOp6Hy3PBvJpr7p-145">
          <mxGeometry x="104" width="25" height="27" as="geometry" />
        </mxCell>
        <mxCell id="n_jWYJOp6Hy3PBvJpr7p-151" style="shape=partialRectangle;html=1;whiteSpace=wrap;connectable=0;overflow=hidden;fillColor=#CAD8E8;top=0;left=0;bottom=0;right=0;container=0;strokeColor=none;" vertex="1" parent="n_jWYJOp6Hy3PBvJpr7p-145">
          <mxGeometry x="129" width="25" height="27" as="geometry" />
        </mxCell>
        <mxCell id="n_jWYJOp6Hy3PBvJpr7p-152" style="shape=partialRectangle;html=1;whiteSpace=wrap;connectable=0;overflow=hidden;fillColor=none;top=0;left=0;bottom=0;right=0;container=0;strokeColor=none;" vertex="1" parent="n_jWYJOp6Hy3PBvJpr7p-145">
          <mxGeometry x="154" width="27" height="27" as="geometry" />
        </mxCell>
        <mxCell id="n_jWYJOp6Hy3PBvJpr7p-153" style="shape=partialRectangle;html=1;whiteSpace=wrap;connectable=0;overflow=hidden;fillColor=none;top=0;left=0;bottom=0;right=0;container=0;strokeColor=none;" vertex="1" parent="n_jWYJOp6Hy3PBvJpr7p-145">
          <mxGeometry x="181" width="26" height="27" as="geometry" />
        </mxCell>
        <mxCell id="n_jWYJOp6Hy3PBvJpr7p-154" style="shape=partialRectangle;html=1;whiteSpace=wrap;connectable=0;overflow=hidden;fillColor=#CAD8E8;top=0;left=0;bottom=0;right=0;container=0;strokeColor=none;" vertex="1" parent="n_jWYJOp6Hy3PBvJpr7p-145">
          <mxGeometry x="207" width="25" height="27" as="geometry" />
        </mxCell>
        <mxCell id="n_jWYJOp6Hy3PBvJpr7p-155" style="shape=partialRectangle;html=1;whiteSpace=wrap;connectable=0;overflow=hidden;fillColor=#CAD8E8;top=0;left=0;bottom=0;right=0;container=0;strokeColor=none;" vertex="1" parent="n_jWYJOp6Hy3PBvJpr7p-145">
          <mxGeometry x="232" width="26" height="27" as="geometry" />
        </mxCell>
        <mxCell id="n_jWYJOp6Hy3PBvJpr7p-171" style="shape=partialRectangle;html=1;whiteSpace=wrap;connectable=0;overflow=hidden;fillColor=none;top=0;left=0;bottom=0;right=0;container=0;strokeColor=none;" vertex="1" parent="n_jWYJOp6Hy3PBvJpr7p-145">
          <mxGeometry x="258" width="26" height="27" as="geometry" />
        </mxCell>
        <mxCell id="n_jWYJOp6Hy3PBvJpr7p-176" style="shape=partialRectangle;html=1;whiteSpace=wrap;connectable=0;overflow=hidden;fillColor=none;top=0;left=0;bottom=0;right=0;container=0;strokeColor=none;" vertex="1" parent="n_jWYJOp6Hy3PBvJpr7p-145">
          <mxGeometry x="284" width="26" height="27" as="geometry" />
        </mxCell>
        <mxCell id="n_jWYJOp6Hy3PBvJpr7p-181" style="shape=partialRectangle;html=1;whiteSpace=wrap;connectable=0;overflow=hidden;fillColor=#CAD8E8;top=0;left=0;bottom=0;right=0;container=0;strokeColor=none;" vertex="1" parent="n_jWYJOp6Hy3PBvJpr7p-145">
          <mxGeometry x="310" width="26" height="27" as="geometry" />
        </mxCell>
        <mxCell id="n_jWYJOp6Hy3PBvJpr7p-186" style="shape=partialRectangle;html=1;whiteSpace=wrap;connectable=0;overflow=hidden;fillColor=none;top=0;left=0;bottom=0;right=0;container=0;strokeColor=none;" vertex="1" parent="n_jWYJOp6Hy3PBvJpr7p-145">
          <mxGeometry x="336" width="26" height="27" as="geometry" />
        </mxCell>
        <mxCell id="n_jWYJOp6Hy3PBvJpr7p-191" style="shape=partialRectangle;html=1;whiteSpace=wrap;connectable=0;overflow=hidden;fillColor=#CAD8E8;top=0;left=0;bottom=0;right=0;container=0;strokeColor=none;" vertex="1" parent="n_jWYJOp6Hy3PBvJpr7p-145">
          <mxGeometry x="362" width="26" height="27" as="geometry" />
        </mxCell>
        <mxCell id="n_jWYJOp6Hy3PBvJpr7p-5" value="" style="shape=partialRectangle;html=1;whiteSpace=wrap;collapsible=0;dropTarget=0;pointerEvents=0;fillColor=none;top=0;left=0;bottom=0;right=0;points=[[0,0.5],[1,0.5]];portConstraint=eastwest;strokeColor=none;" vertex="1" parent="n_jWYJOp6Hy3PBvJpr7p-4">
          <mxGeometry y="27" width="388.1578947368421" height="27" as="geometry" />
        </mxCell>
        <mxCell id="n_jWYJOp6Hy3PBvJpr7p-6" value="" style="shape=partialRectangle;html=1;whiteSpace=wrap;connectable=0;overflow=hidden;top=0;left=0;bottom=0;right=0;container=0;fillColor=#CAD8E8;strokeColor=none;" vertex="1" parent="n_jWYJOp6Hy3PBvJpr7p-5">
          <mxGeometry width="27" height="27" as="geometry" />
        </mxCell>
        <mxCell id="n_jWYJOp6Hy3PBvJpr7p-7" value="" style="shape=partialRectangle;html=1;whiteSpace=wrap;connectable=0;overflow=hidden;fillColor=none;top=0;left=0;bottom=0;right=0;container=0;strokeColor=none;" vertex="1" parent="n_jWYJOp6Hy3PBvJpr7p-5">
          <mxGeometry x="27" width="24" height="27" as="geometry" />
        </mxCell>
        <mxCell id="n_jWYJOp6Hy3PBvJpr7p-8" value="" style="shape=partialRectangle;html=1;whiteSpace=wrap;connectable=0;overflow=hidden;fillColor=none;top=0;left=0;bottom=0;right=0;container=0;strokeColor=none;" vertex="1" parent="n_jWYJOp6Hy3PBvJpr7p-5">
          <mxGeometry x="51" width="26" height="27" as="geometry" />
        </mxCell>
        <mxCell id="n_jWYJOp6Hy3PBvJpr7p-9" value="" style="shape=partialRectangle;html=1;whiteSpace=wrap;connectable=0;overflow=hidden;top=0;left=0;bottom=0;right=0;container=0;fillColor=#83ADE8;strokeColor=none;" vertex="1" parent="n_jWYJOp6Hy3PBvJpr7p-5">
          <mxGeometry x="77" width="27" height="27" as="geometry" />
        </mxCell>
        <mxCell id="n_jWYJOp6Hy3PBvJpr7p-10" value="" style="shape=partialRectangle;html=1;whiteSpace=wrap;connectable=0;overflow=hidden;fillColor=#83ADE8;top=0;left=0;bottom=0;right=0;container=0;strokeColor=none;" vertex="1" parent="n_jWYJOp6Hy3PBvJpr7p-5">
          <mxGeometry x="104" width="25" height="27" as="geometry" />
        </mxCell>
        <mxCell id="n_jWYJOp6Hy3PBvJpr7p-11" value="" style="shape=partialRectangle;html=1;whiteSpace=wrap;connectable=0;overflow=hidden;fillColor=none;top=0;left=0;bottom=0;right=0;container=0;strokeColor=none;" vertex="1" parent="n_jWYJOp6Hy3PBvJpr7p-5">
          <mxGeometry x="129" width="25" height="27" as="geometry" />
        </mxCell>
        <mxCell id="n_jWYJOp6Hy3PBvJpr7p-12" value="" style="shape=partialRectangle;html=1;whiteSpace=wrap;connectable=0;overflow=hidden;fillColor=#CAD8E8;top=0;left=0;bottom=0;right=0;container=0;strokeColor=none;" vertex="1" parent="n_jWYJOp6Hy3PBvJpr7p-5">
          <mxGeometry x="154" width="27" height="27" as="geometry" />
        </mxCell>
        <mxCell id="n_jWYJOp6Hy3PBvJpr7p-13" value="" style="shape=partialRectangle;html=1;whiteSpace=wrap;connectable=0;overflow=hidden;fillColor=none;top=0;left=0;bottom=0;right=0;container=0;strokeColor=none;" vertex="1" parent="n_jWYJOp6Hy3PBvJpr7p-5">
          <mxGeometry x="181" width="26" height="27" as="geometry" />
        </mxCell>
        <mxCell id="n_jWYJOp6Hy3PBvJpr7p-14" value="" style="shape=partialRectangle;html=1;whiteSpace=wrap;connectable=0;overflow=hidden;fillColor=#CAD8E8;top=0;left=0;bottom=0;right=0;container=0;strokeColor=none;" vertex="1" parent="n_jWYJOp6Hy3PBvJpr7p-5">
          <mxGeometry x="207" width="25" height="27" as="geometry" />
        </mxCell>
        <mxCell id="n_jWYJOp6Hy3PBvJpr7p-15" value="" style="shape=partialRectangle;html=1;whiteSpace=wrap;connectable=0;overflow=hidden;fillColor=none;top=0;left=0;bottom=0;right=0;container=0;strokeColor=none;" vertex="1" parent="n_jWYJOp6Hy3PBvJpr7p-5">
          <mxGeometry x="232" width="26" height="27" as="geometry" />
        </mxCell>
        <mxCell id="n_jWYJOp6Hy3PBvJpr7p-172" style="shape=partialRectangle;html=1;whiteSpace=wrap;connectable=0;overflow=hidden;fillColor=none;top=0;left=0;bottom=0;right=0;container=0;strokeColor=none;" vertex="1" parent="n_jWYJOp6Hy3PBvJpr7p-5">
          <mxGeometry x="258" width="26" height="27" as="geometry" />
        </mxCell>
        <mxCell id="n_jWYJOp6Hy3PBvJpr7p-177" style="shape=partialRectangle;html=1;whiteSpace=wrap;connectable=0;overflow=hidden;fillColor=none;top=0;left=0;bottom=0;right=0;container=0;strokeColor=none;" vertex="1" parent="n_jWYJOp6Hy3PBvJpr7p-5">
          <mxGeometry x="284" width="26" height="27" as="geometry" />
        </mxCell>
        <mxCell id="n_jWYJOp6Hy3PBvJpr7p-182" style="shape=partialRectangle;html=1;whiteSpace=wrap;connectable=0;overflow=hidden;fillColor=none;top=0;left=0;bottom=0;right=0;container=0;strokeColor=none;" vertex="1" parent="n_jWYJOp6Hy3PBvJpr7p-5">
          <mxGeometry x="310" width="26" height="27" as="geometry" />
        </mxCell>
        <mxCell id="n_jWYJOp6Hy3PBvJpr7p-187" style="shape=partialRectangle;html=1;whiteSpace=wrap;connectable=0;overflow=hidden;fillColor=#CAD8E8;top=0;left=0;bottom=0;right=0;container=0;strokeColor=none;" vertex="1" parent="n_jWYJOp6Hy3PBvJpr7p-5">
          <mxGeometry x="336" width="26" height="27" as="geometry" />
        </mxCell>
        <mxCell id="n_jWYJOp6Hy3PBvJpr7p-192" style="shape=partialRectangle;html=1;whiteSpace=wrap;connectable=0;overflow=hidden;fillColor=#83ADE8;top=0;left=0;bottom=0;right=0;container=0;strokeColor=none;" vertex="1" parent="n_jWYJOp6Hy3PBvJpr7p-5">
          <mxGeometry x="362" width="26" height="27" as="geometry" />
        </mxCell>
        <mxCell id="n_jWYJOp6Hy3PBvJpr7p-17" value="" style="shape=partialRectangle;html=1;whiteSpace=wrap;collapsible=0;dropTarget=0;pointerEvents=0;fillColor=none;top=0;left=0;bottom=0;right=0;points=[[0,0.5],[1,0.5]];portConstraint=eastwest;strokeColor=none;" vertex="1" parent="n_jWYJOp6Hy3PBvJpr7p-4">
          <mxGeometry y="54" width="388.1578947368421" height="25" as="geometry" />
        </mxCell>
        <mxCell id="n_jWYJOp6Hy3PBvJpr7p-18" value="" style="shape=partialRectangle;html=1;whiteSpace=wrap;connectable=0;overflow=hidden;fillColor=none;top=0;left=0;bottom=0;right=0;container=0;strokeColor=none;" vertex="1" parent="n_jWYJOp6Hy3PBvJpr7p-17">
          <mxGeometry width="27" height="25" as="geometry" />
        </mxCell>
        <mxCell id="n_jWYJOp6Hy3PBvJpr7p-19" value="" style="shape=partialRectangle;html=1;whiteSpace=wrap;connectable=0;overflow=hidden;fillColor=#CAD8E8;top=0;left=0;bottom=0;right=0;container=0;strokeColor=none;" vertex="1" parent="n_jWYJOp6Hy3PBvJpr7p-17">
          <mxGeometry x="27" width="24" height="25" as="geometry" />
        </mxCell>
        <mxCell id="n_jWYJOp6Hy3PBvJpr7p-20" value="" style="shape=partialRectangle;html=1;whiteSpace=wrap;connectable=0;overflow=hidden;fillColor=#CAD8E8;top=0;left=0;bottom=0;right=0;container=0;strokeColor=none;" vertex="1" parent="n_jWYJOp6Hy3PBvJpr7p-17">
          <mxGeometry x="51" width="26" height="25" as="geometry" />
        </mxCell>
        <mxCell id="n_jWYJOp6Hy3PBvJpr7p-21" value="" style="shape=partialRectangle;html=1;whiteSpace=wrap;connectable=0;overflow=hidden;fillColor=none;top=0;left=0;bottom=0;right=0;container=0;strokeColor=none;" vertex="1" parent="n_jWYJOp6Hy3PBvJpr7p-17">
          <mxGeometry x="77" width="27" height="25" as="geometry" />
        </mxCell>
        <mxCell id="n_jWYJOp6Hy3PBvJpr7p-22" value="" style="shape=partialRectangle;html=1;whiteSpace=wrap;connectable=0;overflow=hidden;fillColor=none;top=0;left=0;bottom=0;right=0;container=0;strokeColor=none;" vertex="1" parent="n_jWYJOp6Hy3PBvJpr7p-17">
          <mxGeometry x="104" width="25" height="25" as="geometry" />
        </mxCell>
        <mxCell id="n_jWYJOp6Hy3PBvJpr7p-23" value="" style="shape=partialRectangle;html=1;whiteSpace=wrap;connectable=0;overflow=hidden;fillColor=none;top=0;left=0;bottom=0;right=0;container=0;strokeColor=none;" vertex="1" parent="n_jWYJOp6Hy3PBvJpr7p-17">
          <mxGeometry x="129" width="25" height="25" as="geometry" />
        </mxCell>
        <mxCell id="n_jWYJOp6Hy3PBvJpr7p-24" value="" style="shape=partialRectangle;html=1;whiteSpace=wrap;connectable=0;overflow=hidden;fillColor=#83ADE8;top=0;left=0;bottom=0;right=0;container=0;strokeColor=none;" vertex="1" parent="n_jWYJOp6Hy3PBvJpr7p-17">
          <mxGeometry x="154" width="27" height="25" as="geometry" />
        </mxCell>
        <mxCell id="n_jWYJOp6Hy3PBvJpr7p-25" value="" style="shape=partialRectangle;html=1;whiteSpace=wrap;connectable=0;overflow=hidden;fillColor=#83ADE8;top=0;left=0;bottom=0;right=0;container=0;strokeColor=none;" vertex="1" parent="n_jWYJOp6Hy3PBvJpr7p-17">
          <mxGeometry x="181" width="26" height="25" as="geometry" />
        </mxCell>
        <mxCell id="n_jWYJOp6Hy3PBvJpr7p-26" value="" style="shape=partialRectangle;html=1;whiteSpace=wrap;connectable=0;overflow=hidden;fillColor=none;top=0;left=0;bottom=0;right=0;container=0;strokeColor=none;" vertex="1" parent="n_jWYJOp6Hy3PBvJpr7p-17">
          <mxGeometry x="207" width="25" height="25" as="geometry" />
        </mxCell>
        <mxCell id="n_jWYJOp6Hy3PBvJpr7p-27" value="" style="shape=partialRectangle;html=1;whiteSpace=wrap;connectable=0;overflow=hidden;fillColor=#83ADE8;top=0;left=0;bottom=0;right=0;container=0;strokeColor=none;" vertex="1" parent="n_jWYJOp6Hy3PBvJpr7p-17">
          <mxGeometry x="232" width="26" height="25" as="geometry" />
        </mxCell>
        <mxCell id="n_jWYJOp6Hy3PBvJpr7p-173" style="shape=partialRectangle;html=1;whiteSpace=wrap;connectable=0;overflow=hidden;fillColor=#83ADE8;top=0;left=0;bottom=0;right=0;container=0;strokeColor=none;" vertex="1" parent="n_jWYJOp6Hy3PBvJpr7p-17">
          <mxGeometry x="258" width="26" height="25" as="geometry" />
        </mxCell>
        <mxCell id="n_jWYJOp6Hy3PBvJpr7p-178" style="shape=partialRectangle;html=1;whiteSpace=wrap;connectable=0;overflow=hidden;fillColor=#83ADE8;top=0;left=0;bottom=0;right=0;container=0;strokeColor=none;" vertex="1" parent="n_jWYJOp6Hy3PBvJpr7p-17">
          <mxGeometry x="284" width="26" height="25" as="geometry" />
        </mxCell>
        <mxCell id="n_jWYJOp6Hy3PBvJpr7p-183" style="shape=partialRectangle;html=1;whiteSpace=wrap;connectable=0;overflow=hidden;fillColor=none;top=0;left=0;bottom=0;right=0;container=0;strokeColor=none;" vertex="1" parent="n_jWYJOp6Hy3PBvJpr7p-17">
          <mxGeometry x="310" width="26" height="25" as="geometry" />
        </mxCell>
        <mxCell id="n_jWYJOp6Hy3PBvJpr7p-188" style="shape=partialRectangle;html=1;whiteSpace=wrap;connectable=0;overflow=hidden;fillColor=none;top=0;left=0;bottom=0;right=0;container=0;strokeColor=none;" vertex="1" parent="n_jWYJOp6Hy3PBvJpr7p-17">
          <mxGeometry x="336" width="26" height="25" as="geometry" />
        </mxCell>
        <mxCell id="n_jWYJOp6Hy3PBvJpr7p-193" style="shape=partialRectangle;html=1;whiteSpace=wrap;connectable=0;overflow=hidden;fillColor=#CAD8E8;top=0;left=0;bottom=0;right=0;container=0;strokeColor=none;" vertex="1" parent="n_jWYJOp6Hy3PBvJpr7p-17">
          <mxGeometry x="362" width="26" height="25" as="geometry" />
        </mxCell>
        <mxCell id="n_jWYJOp6Hy3PBvJpr7p-29" value="" style="shape=partialRectangle;html=1;whiteSpace=wrap;collapsible=0;dropTarget=0;pointerEvents=0;fillColor=none;top=0;left=0;bottom=0;right=0;points=[[0,0.5],[1,0.5]];portConstraint=eastwest;strokeColor=none;" vertex="1" parent="n_jWYJOp6Hy3PBvJpr7p-4">
          <mxGeometry y="79" width="388.1578947368421" height="26" as="geometry" />
        </mxCell>
        <mxCell id="n_jWYJOp6Hy3PBvJpr7p-30" value="" style="shape=partialRectangle;html=1;whiteSpace=wrap;connectable=0;overflow=hidden;fillColor=none;top=0;left=0;bottom=0;right=0;container=0;strokeColor=none;" vertex="1" parent="n_jWYJOp6Hy3PBvJpr7p-29">
          <mxGeometry width="27" height="26" as="geometry" />
        </mxCell>
        <mxCell id="n_jWYJOp6Hy3PBvJpr7p-31" value="" style="shape=partialRectangle;html=1;whiteSpace=wrap;connectable=0;overflow=hidden;fillColor=#CAD8E8;top=0;left=0;bottom=0;right=0;container=0;strokeColor=none;" vertex="1" parent="n_jWYJOp6Hy3PBvJpr7p-29">
          <mxGeometry x="27" width="24" height="26" as="geometry" />
        </mxCell>
        <mxCell id="n_jWYJOp6Hy3PBvJpr7p-32" value="" style="shape=partialRectangle;html=1;whiteSpace=wrap;connectable=0;overflow=hidden;fillColor=#83ADE8;top=0;left=0;bottom=0;right=0;container=0;strokeColor=none;" vertex="1" parent="n_jWYJOp6Hy3PBvJpr7p-29">
          <mxGeometry x="51" width="26" height="26" as="geometry" />
        </mxCell>
        <mxCell id="n_jWYJOp6Hy3PBvJpr7p-33" value="" style="shape=partialRectangle;html=1;whiteSpace=wrap;connectable=0;overflow=hidden;fillColor=#CAD8E8;top=0;left=0;bottom=0;right=0;container=0;strokeColor=none;" vertex="1" parent="n_jWYJOp6Hy3PBvJpr7p-29">
          <mxGeometry x="77" width="27" height="26" as="geometry" />
        </mxCell>
        <mxCell id="n_jWYJOp6Hy3PBvJpr7p-34" value="" style="shape=partialRectangle;html=1;whiteSpace=wrap;connectable=0;overflow=hidden;fillColor=none;top=0;left=0;bottom=0;right=0;container=0;strokeColor=none;" vertex="1" parent="n_jWYJOp6Hy3PBvJpr7p-29">
          <mxGeometry x="104" width="25" height="26" as="geometry" />
        </mxCell>
        <mxCell id="n_jWYJOp6Hy3PBvJpr7p-35" value="" style="shape=partialRectangle;html=1;whiteSpace=wrap;connectable=0;overflow=hidden;fillColor=#83ADE8;top=0;left=0;bottom=0;right=0;container=0;strokeColor=none;" vertex="1" parent="n_jWYJOp6Hy3PBvJpr7p-29">
          <mxGeometry x="129" width="25" height="26" as="geometry" />
        </mxCell>
        <mxCell id="n_jWYJOp6Hy3PBvJpr7p-36" value="" style="shape=partialRectangle;html=1;whiteSpace=wrap;connectable=0;overflow=hidden;fillColor=none;top=0;left=0;bottom=0;right=0;container=0;strokeColor=none;" vertex="1" parent="n_jWYJOp6Hy3PBvJpr7p-29">
          <mxGeometry x="154" width="27" height="26" as="geometry" />
        </mxCell>
        <mxCell id="n_jWYJOp6Hy3PBvJpr7p-37" value="" style="shape=partialRectangle;html=1;whiteSpace=wrap;connectable=0;overflow=hidden;fillColor=#CAD8E8;top=0;left=0;bottom=0;right=0;container=0;strokeColor=none;" vertex="1" parent="n_jWYJOp6Hy3PBvJpr7p-29">
          <mxGeometry x="181" width="26" height="26" as="geometry" />
        </mxCell>
        <mxCell id="n_jWYJOp6Hy3PBvJpr7p-38" value="" style="shape=partialRectangle;html=1;whiteSpace=wrap;connectable=0;overflow=hidden;fillColor=#83ADE8;top=0;left=0;bottom=0;right=0;container=0;strokeColor=none;" vertex="1" parent="n_jWYJOp6Hy3PBvJpr7p-29">
          <mxGeometry x="207" width="25" height="26" as="geometry" />
        </mxCell>
        <mxCell id="n_jWYJOp6Hy3PBvJpr7p-39" value="" style="shape=partialRectangle;html=1;whiteSpace=wrap;connectable=0;overflow=hidden;fillColor=none;top=0;left=0;bottom=0;right=0;container=0;strokeColor=none;" vertex="1" parent="n_jWYJOp6Hy3PBvJpr7p-29">
          <mxGeometry x="232" width="26" height="26" as="geometry" />
        </mxCell>
        <mxCell id="n_jWYJOp6Hy3PBvJpr7p-174" style="shape=partialRectangle;html=1;whiteSpace=wrap;connectable=0;overflow=hidden;fillColor=none;top=0;left=0;bottom=0;right=0;container=0;strokeColor=none;" vertex="1" parent="n_jWYJOp6Hy3PBvJpr7p-29">
          <mxGeometry x="258" width="26" height="26" as="geometry" />
        </mxCell>
        <mxCell id="n_jWYJOp6Hy3PBvJpr7p-179" style="shape=partialRectangle;html=1;whiteSpace=wrap;connectable=0;overflow=hidden;fillColor=#CAD8E8;top=0;left=0;bottom=0;right=0;container=0;strokeColor=none;" vertex="1" parent="n_jWYJOp6Hy3PBvJpr7p-29">
          <mxGeometry x="284" width="26" height="26" as="geometry" />
        </mxCell>
        <mxCell id="n_jWYJOp6Hy3PBvJpr7p-184" style="shape=partialRectangle;html=1;whiteSpace=wrap;connectable=0;overflow=hidden;fillColor=#83ADE8;top=0;left=0;bottom=0;right=0;container=0;strokeColor=none;" vertex="1" parent="n_jWYJOp6Hy3PBvJpr7p-29">
          <mxGeometry x="310" width="26" height="26" as="geometry" />
        </mxCell>
        <mxCell id="n_jWYJOp6Hy3PBvJpr7p-189" style="shape=partialRectangle;html=1;whiteSpace=wrap;connectable=0;overflow=hidden;fillColor=#83ADE8;top=0;left=0;bottom=0;right=0;container=0;strokeColor=none;" vertex="1" parent="n_jWYJOp6Hy3PBvJpr7p-29">
          <mxGeometry x="336" width="26" height="26" as="geometry" />
        </mxCell>
        <mxCell id="n_jWYJOp6Hy3PBvJpr7p-194" style="shape=partialRectangle;html=1;whiteSpace=wrap;connectable=0;overflow=hidden;fillColor=none;top=0;left=0;bottom=0;right=0;container=0;strokeColor=none;" vertex="1" parent="n_jWYJOp6Hy3PBvJpr7p-29">
          <mxGeometry x="362" width="26" height="26" as="geometry" />
        </mxCell>
        <mxCell id="n_jWYJOp6Hy3PBvJpr7p-41" value="" style="shape=partialRectangle;html=1;whiteSpace=wrap;collapsible=0;dropTarget=0;pointerEvents=0;fillColor=none;top=0;left=0;bottom=0;right=0;points=[[0,0.5],[1,0.5]];portConstraint=eastwest;strokeColor=none;" vertex="1" parent="n_jWYJOp6Hy3PBvJpr7p-4">
          <mxGeometry y="105" width="388.1578947368421" height="28" as="geometry" />
        </mxCell>
        <mxCell id="n_jWYJOp6Hy3PBvJpr7p-42" value="" style="shape=partialRectangle;html=1;whiteSpace=wrap;connectable=0;overflow=hidden;fillColor=#CAD8E8;top=0;left=0;bottom=0;right=0;container=0;strokeColor=none;" vertex="1" parent="n_jWYJOp6Hy3PBvJpr7p-41">
          <mxGeometry width="27" height="28" as="geometry" />
        </mxCell>
        <mxCell id="n_jWYJOp6Hy3PBvJpr7p-43" value="" style="shape=partialRectangle;html=1;whiteSpace=wrap;connectable=0;overflow=hidden;fillColor=none;top=0;left=0;bottom=0;right=0;container=0;strokeColor=none;" vertex="1" parent="n_jWYJOp6Hy3PBvJpr7p-41">
          <mxGeometry x="27" width="24" height="28" as="geometry" />
        </mxCell>
        <mxCell id="n_jWYJOp6Hy3PBvJpr7p-44" value="" style="shape=partialRectangle;html=1;whiteSpace=wrap;connectable=0;overflow=hidden;fillColor=none;top=0;left=0;bottom=0;right=0;container=0;strokeColor=none;" vertex="1" parent="n_jWYJOp6Hy3PBvJpr7p-41">
          <mxGeometry x="51" width="26" height="28" as="geometry" />
        </mxCell>
        <mxCell id="n_jWYJOp6Hy3PBvJpr7p-45" value="" style="shape=partialRectangle;html=1;whiteSpace=wrap;connectable=0;overflow=hidden;fillColor=none;top=0;left=0;bottom=0;right=0;container=0;strokeColor=none;" vertex="1" parent="n_jWYJOp6Hy3PBvJpr7p-41">
          <mxGeometry x="77" width="27" height="28" as="geometry" />
        </mxCell>
        <mxCell id="n_jWYJOp6Hy3PBvJpr7p-46" value="" style="shape=partialRectangle;html=1;whiteSpace=wrap;connectable=0;overflow=hidden;fillColor=#CAD8E8;top=0;left=0;bottom=0;right=0;container=0;strokeColor=none;" vertex="1" parent="n_jWYJOp6Hy3PBvJpr7p-41">
          <mxGeometry x="104" width="25" height="28" as="geometry" />
        </mxCell>
        <mxCell id="n_jWYJOp6Hy3PBvJpr7p-47" value="" style="shape=partialRectangle;html=1;whiteSpace=wrap;connectable=0;overflow=hidden;fillColor=none;top=0;left=0;bottom=0;right=0;container=0;strokeColor=none;" vertex="1" parent="n_jWYJOp6Hy3PBvJpr7p-41">
          <mxGeometry x="129" width="25" height="28" as="geometry" />
        </mxCell>
        <mxCell id="n_jWYJOp6Hy3PBvJpr7p-48" value="" style="shape=partialRectangle;html=1;whiteSpace=wrap;connectable=0;overflow=hidden;fillColor=none;top=0;left=0;bottom=0;right=0;container=0;strokeColor=none;" vertex="1" parent="n_jWYJOp6Hy3PBvJpr7p-41">
          <mxGeometry x="154" width="27" height="28" as="geometry" />
        </mxCell>
        <mxCell id="n_jWYJOp6Hy3PBvJpr7p-49" value="" style="shape=partialRectangle;html=1;whiteSpace=wrap;connectable=0;overflow=hidden;fillColor=none;top=0;left=0;bottom=0;right=0;container=0;strokeColor=none;" vertex="1" parent="n_jWYJOp6Hy3PBvJpr7p-41">
          <mxGeometry x="181" width="26" height="28" as="geometry" />
        </mxCell>
        <mxCell id="n_jWYJOp6Hy3PBvJpr7p-50" value="" style="shape=partialRectangle;html=1;whiteSpace=wrap;connectable=0;overflow=hidden;fillColor=none;top=0;left=0;bottom=0;right=0;container=0;strokeColor=none;" vertex="1" parent="n_jWYJOp6Hy3PBvJpr7p-41">
          <mxGeometry x="207" width="25" height="28" as="geometry" />
        </mxCell>
        <mxCell id="n_jWYJOp6Hy3PBvJpr7p-51" value="" style="shape=partialRectangle;html=1;whiteSpace=wrap;connectable=0;overflow=hidden;fillColor=#CAD8E8;top=0;left=0;bottom=0;right=0;container=0;strokeColor=none;" vertex="1" parent="n_jWYJOp6Hy3PBvJpr7p-41">
          <mxGeometry x="232" width="26" height="28" as="geometry" />
        </mxCell>
        <mxCell id="n_jWYJOp6Hy3PBvJpr7p-175" style="shape=partialRectangle;html=1;whiteSpace=wrap;connectable=0;overflow=hidden;fillColor=none;top=0;left=0;bottom=0;right=0;container=0;strokeColor=none;" vertex="1" parent="n_jWYJOp6Hy3PBvJpr7p-41">
          <mxGeometry x="258" width="26" height="28" as="geometry" />
        </mxCell>
        <mxCell id="n_jWYJOp6Hy3PBvJpr7p-180" style="shape=partialRectangle;html=1;whiteSpace=wrap;connectable=0;overflow=hidden;fillColor=none;top=0;left=0;bottom=0;right=0;container=0;strokeColor=none;" vertex="1" parent="n_jWYJOp6Hy3PBvJpr7p-41">
          <mxGeometry x="284" width="26" height="28" as="geometry" />
        </mxCell>
        <mxCell id="n_jWYJOp6Hy3PBvJpr7p-185" style="shape=partialRectangle;html=1;whiteSpace=wrap;connectable=0;overflow=hidden;fillColor=none;top=0;left=0;bottom=0;right=0;container=0;strokeColor=none;" vertex="1" parent="n_jWYJOp6Hy3PBvJpr7p-41">
          <mxGeometry x="310" width="26" height="28" as="geometry" />
        </mxCell>
        <mxCell id="n_jWYJOp6Hy3PBvJpr7p-190" style="shape=partialRectangle;html=1;whiteSpace=wrap;connectable=0;overflow=hidden;fillColor=#CAD8E8;top=0;left=0;bottom=0;right=0;container=0;strokeColor=none;" vertex="1" parent="n_jWYJOp6Hy3PBvJpr7p-41">
          <mxGeometry x="336" width="26" height="28" as="geometry" />
        </mxCell>
        <mxCell id="n_jWYJOp6Hy3PBvJpr7p-195" style="shape=partialRectangle;html=1;whiteSpace=wrap;connectable=0;overflow=hidden;fillColor=none;top=0;left=0;bottom=0;right=0;container=0;strokeColor=none;" vertex="1" parent="n_jWYJOp6Hy3PBvJpr7p-41">
          <mxGeometry x="362" width="26" height="28" as="geometry" />
        </mxCell>
        <mxCell id="n_jWYJOp6Hy3PBvJpr7p-220" value="" style="shape=curlyBracket;whiteSpace=wrap;html=1;rounded=1;strokeColor=#000000;fillColor=#CAD8E8;fontSize=10.5;rotation=-90;" vertex="1" parent="1">
          <mxGeometry x="394" y="166" width="20" height="411.05" as="geometry" />
        </mxCell>
        <mxCell id="n_jWYJOp6Hy3PBvJpr7p-221" value="" style="shape=table;html=1;whiteSpace=wrap;startSize=0;container=1;collapsible=0;childLayout=tableLayout;" vertex="1" parent="1">
          <mxGeometry x="203.68" y="400" width="394.32" height="25" as="geometry" />
        </mxCell>
        <mxCell id="n_jWYJOp6Hy3PBvJpr7p-222" value="" style="shape=partialRectangle;html=1;whiteSpace=wrap;collapsible=0;dropTarget=0;pointerEvents=0;fillColor=none;top=0;left=0;bottom=0;right=0;points=[[0,0.5],[1,0.5]];portConstraint=eastwest;" vertex="1" parent="n_jWYJOp6Hy3PBvJpr7p-221">
          <mxGeometry width="394.32" height="25" as="geometry" />
        </mxCell>
        <mxCell id="n_jWYJOp6Hy3PBvJpr7p-223" value="s" style="shape=partialRectangle;html=1;whiteSpace=wrap;connectable=0;overflow=hidden;fillColor=none;top=0;left=0;bottom=0;right=0;" vertex="1" parent="n_jWYJOp6Hy3PBvJpr7p-222">
          <mxGeometry width="27" height="25" as="geometry" />
        </mxCell>
        <mxCell id="n_jWYJOp6Hy3PBvJpr7p-224" value="s" style="shape=partialRectangle;html=1;whiteSpace=wrap;connectable=0;overflow=hidden;fillColor=none;top=0;left=0;bottom=0;right=0;" vertex="1" parent="n_jWYJOp6Hy3PBvJpr7p-222">
          <mxGeometry x="27" width="26" height="25" as="geometry" />
        </mxCell>
        <mxCell id="n_jWYJOp6Hy3PBvJpr7p-225" value="-" style="shape=partialRectangle;html=1;whiteSpace=wrap;connectable=0;overflow=hidden;fillColor=none;top=0;left=0;bottom=0;right=0;" vertex="1" parent="n_jWYJOp6Hy3PBvJpr7p-222">
          <mxGeometry x="53" width="27" height="25" as="geometry" />
        </mxCell>
        <mxCell id="n_jWYJOp6Hy3PBvJpr7p-226" value="t" style="shape=partialRectangle;html=1;whiteSpace=wrap;connectable=0;overflow=hidden;fillColor=none;top=0;left=0;bottom=0;right=0;" vertex="1" parent="n_jWYJOp6Hy3PBvJpr7p-222">
          <mxGeometry x="80" width="26" height="25" as="geometry" />
        </mxCell>
        <mxCell id="n_jWYJOp6Hy3PBvJpr7p-227" value="t" style="shape=partialRectangle;html=1;whiteSpace=wrap;connectable=0;overflow=hidden;fillColor=none;top=0;left=0;bottom=0;right=0;" vertex="1" parent="n_jWYJOp6Hy3PBvJpr7p-222">
          <mxGeometry x="106" width="27" height="25" as="geometry" />
        </mxCell>
        <mxCell id="n_jWYJOp6Hy3PBvJpr7p-228" value="-" style="shape=partialRectangle;html=1;whiteSpace=wrap;connectable=0;overflow=hidden;fillColor=none;top=0;left=0;bottom=0;right=0;" vertex="1" parent="n_jWYJOp6Hy3PBvJpr7p-222">
          <mxGeometry x="133" width="26" height="25" as="geometry" />
        </mxCell>
        <mxCell id="n_jWYJOp6Hy3PBvJpr7p-229" value="a" style="shape=partialRectangle;html=1;whiteSpace=wrap;connectable=0;overflow=hidden;fillColor=none;top=0;left=0;bottom=0;right=0;" vertex="1" parent="n_jWYJOp6Hy3PBvJpr7p-222">
          <mxGeometry x="159" width="25" height="25" as="geometry" />
        </mxCell>
        <mxCell id="n_jWYJOp6Hy3PBvJpr7p-230" value="a" style="shape=partialRectangle;html=1;whiteSpace=wrap;connectable=0;overflow=hidden;fillColor=none;top=0;left=0;bottom=0;right=0;" vertex="1" parent="n_jWYJOp6Hy3PBvJpr7p-222">
          <mxGeometry x="184" width="27" height="25" as="geometry" />
        </mxCell>
        <mxCell id="n_jWYJOp6Hy3PBvJpr7p-231" value="-" style="shape=partialRectangle;html=1;whiteSpace=wrap;connectable=0;overflow=hidden;fillColor=none;top=0;left=0;bottom=0;right=0;" vertex="1" parent="n_jWYJOp6Hy3PBvJpr7p-222">
          <mxGeometry x="211" width="28" height="25" as="geometry" />
        </mxCell>
        <mxCell id="n_jWYJOp6Hy3PBvJpr7p-232" value="a" style="shape=partialRectangle;html=1;whiteSpace=wrap;connectable=0;overflow=hidden;fillColor=none;top=0;left=0;bottom=0;right=0;" vertex="1" parent="n_jWYJOp6Hy3PBvJpr7p-222">
          <mxGeometry x="239" width="26" height="25" as="geometry" />
        </mxCell>
        <mxCell id="n_jWYJOp6Hy3PBvJpr7p-233" value="a" style="shape=partialRectangle;html=1;whiteSpace=wrap;connectable=0;overflow=hidden;fillColor=none;top=0;left=0;bottom=0;right=0;" vertex="1" parent="n_jWYJOp6Hy3PBvJpr7p-222">
          <mxGeometry x="265" width="25" height="25" as="geometry" />
        </mxCell>
        <mxCell id="n_jWYJOp6Hy3PBvJpr7p-234" value="a" style="shape=partialRectangle;html=1;whiteSpace=wrap;connectable=0;overflow=hidden;fillColor=none;top=0;left=0;bottom=0;right=0;" vertex="1" parent="n_jWYJOp6Hy3PBvJpr7p-222">
          <mxGeometry x="290" width="26" height="25" as="geometry" />
        </mxCell>
        <mxCell id="n_jWYJOp6Hy3PBvJpr7p-235" value="-" style="shape=partialRectangle;html=1;whiteSpace=wrap;connectable=0;overflow=hidden;fillColor=none;top=0;left=0;bottom=0;right=0;" vertex="1" parent="n_jWYJOp6Hy3PBvJpr7p-222">
          <mxGeometry x="316" width="26" height="25" as="geometry" />
        </mxCell>
        <mxCell id="n_jWYJOp6Hy3PBvJpr7p-253" value="-" style="shape=partialRectangle;html=1;whiteSpace=wrap;connectable=0;overflow=hidden;fillColor=none;top=0;left=0;bottom=0;right=0;" vertex="1" parent="n_jWYJOp6Hy3PBvJpr7p-222">
          <mxGeometry x="342" width="26" height="25" as="geometry" />
        </mxCell>
        <mxCell id="n_jWYJOp6Hy3PBvJpr7p-254" value="t" style="shape=partialRectangle;html=1;whiteSpace=wrap;connectable=0;overflow=hidden;fillColor=none;top=0;left=0;bottom=0;right=0;" vertex="1" parent="n_jWYJOp6Hy3PBvJpr7p-222">
          <mxGeometry x="368" width="26" height="25" as="geometry" />
        </mxCell>
        <mxCell id="n_jWYJOp6Hy3PBvJpr7p-251" value="" style="shape=flexArrow;endArrow=classic;html=1;fontSize=10.5;" edge="1" parent="1">
          <mxGeometry width="50" height="50" relative="1" as="geometry">
            <mxPoint x="403.71" y="440" as="sourcePoint" />
            <mxPoint x="403.71" y="470" as="targetPoint" />
          </mxGeometry>
        </mxCell>
        <mxCell id="n_jWYJOp6Hy3PBvJpr7p-252" value="&quot;state&quot;" style="text;html=1;align=center;verticalAlign=middle;resizable=0;points=[];autosize=1;fontSize=10.5;" vertex="1" parent="1">
          <mxGeometry x="379" y="480" width="50" height="20" as="geometry" />
        </mxCell>
        <mxCell id="n_jWYJOp6Hy3PBvJpr7p-3" value="" style="endArrow=classic;html=1;" edge="1" parent="1">
          <mxGeometry x="180" y="170" width="50" height="50" as="geometry">
            <mxPoint x="203.68421052631578" y="186.1904761904762" as="sourcePoint" />
            <mxPoint x="203.68421052631578" y="340" as="targetPoint" />
          </mxGeometry>
        </mxCell>
        <mxCell id="n_jWYJOp6Hy3PBvJpr7p-2" value="" style="endArrow=classic;html=1;fontSize=10.5;" edge="1" parent="1">
          <mxGeometry x="180" y="170" width="50" height="50" as="geometry">
            <mxPoint x="203.68421052631578" y="186.1904761904762" as="sourcePoint" />
            <mxPoint x="610" y="186" as="targetPoint" />
          </mxGeometry>
        </mxCell>
      </root>
    </mxGraphModel>
  </diagram>
</mxfile>
